<?xml version="1.0" standalone="no"?><!DOCTYPE svg PUBLIC "-//W3C//DTD SVG 1.1//EN" "http://www.w3.org/Graphics/SVG/1.1/DTD/svg11.dtd"><svg t="1734064358681" class="icon" viewBox="0 0 1024 1024" version="1.1" xmlns="http://www.w3.org/2000/svg" p-id="1485" xmlns:xlink="http://www.w3.org/1999/xlink" width="256" height="256"><path d="M979.654664 284.319691a38.725379 38.725379 0 0 1-33.740925-19.682206 464.576747 464.576747 0 0 0-200.52845-189.537088 38.725379 38.725379 0 1 1 34.124344-69.590657 541.644086 541.644086 0 0 1 233.885955 221.041398 38.725379 38.725379 0 0 1-33.740924 57.768553z m-940.208759 0a38.725379 38.725379 0 0 1-33.677022-57.768553A541.51628 541.51628 0 0 1 239.654838 5.50974a38.725379 38.725379 0 0 1 34.060441 69.590657 464.576747 464.576747 0 0 0-200.464546 189.537088 38.725379 38.725379 0 0 1-33.804828 19.682206zM509.582236 117.212649a452.371223 452.371223 0 0 0-451.796094 451.796094 452.371223 452.371223 0 0 0 451.796094 451.859997 452.371223 452.371223 0 0 0 451.796094-451.796094 452.371223 452.371223 0 0 0-451.796094-451.859997zM671.768726 496.159019l-156.179583 178.481823a38.597573 38.597573 0 0 1-53.359228 4.728842L350.782619 590.224627a38.725379 38.725379 0 1 1 48.374772-60.45249L481.784315 595.848115l131.768535-150.556096a38.661476 38.661476 0 1 1 58.279779 50.930904z" fill="#691bfd" p-id="1486"></path></svg>