<?xml version="1.0" standalone="no"?><!DOCTYPE svg PUBLIC "-//W3C//DTD SVG 1.1//EN" "http://www.w3.org/Graphics/SVG/1.1/DTD/svg11.dtd"><svg t="1730272233187" class="icon" viewBox="0 0 1024 1024" version="1.1" xmlns="http://www.w3.org/2000/svg" p-id="11094" xmlns:xlink="http://www.w3.org/1999/xlink" width="256" height="256"><path d="M975.238095 512a463.238095 463.238095 0 1 1-926.47619 0 463.238095 463.238095 0 0 1 926.47619 0z m-97.523809 0q0-151.503238-107.129905-258.584381Q663.503238 146.285714 512 146.285714 360.496762 146.285714 253.415619 253.415619 146.285714 360.496762 146.285714 512q0 151.503238 107.129905 258.584381Q360.496762 877.714286 512 877.714286q151.503238 0 258.584381-107.129905Q877.714286 663.503238 877.714286 512z" fill="#ffffff" p-id="11095"></path><path d="M463.238095 604.891429h247.271619v-97.52381H560.761905V225.231238h-97.52381v379.660191z" fill="#ffffff" p-id="11096"></path></svg>