<?xml version="1.0" standalone="no"?><!DOCTYPE svg PUBLIC "-//W3C//DTD SVG 1.1//EN" "http://www.w3.org/Graphics/SVG/1.1/DTD/svg11.dtd"><svg t="1734272615958" class="icon" viewBox="0 0 1024 1024" version="1.1" xmlns="http://www.w3.org/2000/svg" p-id="8397" xmlns:xlink="http://www.w3.org/1999/xlink" width="256" height="256"><path d="M628.031667 356.51988l-61.670571 61.409628c0.260943 0.11768 0.450255 0.260943 0.591471 0.378623l-32.280194 31.688723c-7.340175-2.818185-15.226796-4.524037-23.540136-4.524037-36.306904 0-65.720817 29.413913-65.720817 65.719794 0 36.33044 29.413913 65.720817 65.720817 65.720817 36.281321 0 65.672722-29.390377 65.672722-65.720817 0-8.359388-1.704828-16.269545-4.524037-23.588231l72.090898-72.090898-0.047072-0.023536 21.219277-21.219277 128.790248 19.585057 154.887626-154.86409-161.993464-23.186072-75.642794 75.335802-0.213871-0.188288 76.544327-76.497255-24.559349-161.377434-154.887626 154.911162L628.031667 356.51988z" fill="#272636" p-id="8398"></path><path d="M805.65511 447.984011l-13.688767 17.170055c3.172249 16.933671 3.930519 28.206412 3.930519 46.016033 0 157.25658-127.510092 284.743136-284.74109 284.743136-157.303652 0-284.790208-127.486556-284.790208-284.743136 0-157.278069 127.510092-286.304701 284.766672-284.764626 15.487739 0.164752 30.361495 0.497327 39.21821 2.084475l124.95285-123.31863c-50.753941-20.533662-106.075921-32.091906-164.17106-32.091906-241.970984 0-438.090687 196.144262-438.090687 438.090687 0 241.970984 196.11868 438.090687 438.090687 438.090687 241.96996 0 438.090687-196.11868 438.090687-438.090687 0-58.283428-11.627828-113.772206-32.256658-164.620291L805.65511 447.984011z" fill="#272636" p-id="8399"></path><path d="M511.132236 402.346601c6.820336 0 13.474896 0.805342 19.98824 1.988284l56.577576-56.767911-10.443863-68.608587c-21.078061-6.016017-43.174312-9.426697-66.121953-9.426697-133.455501 0-241.639432 108.183931-241.639432 241.638409 0 133.455501 108.183931 241.615896 241.639432 241.615896 133.453455 0 241.614873-108.160395 241.614873-241.615896 0-21.314445-3.031033-41.895179-8.218172-61.59894l-70.598918-14.399965-55.962569 56.010665c1.207501 6.466272 1.988284 13.120832 1.988284 19.98824 0 60.109006-48.715515 108.824521-108.822474 108.824521-60.109006 0-108.848057-48.715515-108.848057-108.824521C402.284179 451.062116 451.02323 402.346601 511.132236 402.346601z" fill="#272636" p-id="8400"></path></svg>