<?xml version="1.0" encoding="UTF-8"?>
<svg id="_图层_1" data-name="图层_1" xmlns="http://www.w3.org/2000/svg" version="1.1" xmlns:xlink="http://www.w3.org/1999/xlink" viewBox="0 0 256 256">
  <!-- Generator: Adobe Illustrator 29.2.1, SVG Export Plug-In . SVG Version: 2.1.0 Build 116)  -->
  <defs>
    <style>
      .st0 {
        fill: #fff;
      }
    </style>
  </defs>
  <path class="st0" d="M190.6,220.6c-18.5,12.6-40.1,19.2-62.6,19.2-61.6,0-111.8-50.1-111.8-111.7s6.5-43.6,18.7-61.9c2.5-3.7,1.5-8.8-2.3-11.3-3.7-2.5-8.8-1.5-11.3,2.3C7.4,78.1,0,102.7,0,128,0,198.6,57.4,256,128,256s50.5-7.6,71.7-21.9c3.7-2.5,4.7-7.6,2.2-11.3-2.6-3.7-7.6-4.7-11.3-2.1h0ZM128,0C100.7,0,74.6,8.4,52.6,24.5c-3.6,2.7-4.4,7.8-1.8,11.4,2.7,3.6,7.8,4.4,11.4,1.8,19.2-14,42-21.4,65.8-21.4,61.6,0,111.7,50.2,111.7,111.8s-7.4,46.6-21.4,65.8c-2.7,3.6-1.8,8.7,1.8,11.4,1.4,1.1,3.1,1.6,4.8,1.6,2.5,0,5-1.2,6.6-3.4,16.1-22,24.6-48.1,24.6-75.4C256,57.4,198.6,0,128,0ZM103.1,179.3c1.4,0,2.8-.3,4.1-1.1l73.8-42.6c2.5-1.4,4.1-4.1,4.1-7.1s-1.5-5.6-4.1-7.1l-73.8-42.6c-2.6-1.4-5.6-1.4-8.2,0-2.5,1.4-4.1,4.1-4.1,7.1v85.2c0,2.9,1.5,5.6,4.1,7.1,1.2.8,2.7,1.1,4.1,1.1h0ZM111.3,100l49.4,28.5-49.4,28.5v-57Z"/>
</svg>